<?xml version="1.0" encoding="UTF-8" standalone="no"?><!DOCTYPE svg PUBLIC "-//W3C//DTD SVG 1.1//EN" "http://www.w3.org/Graphics/SVG/1.1/DTD/svg11.dtd"><svg width="100%" height="100%" viewBox="0 0 1000 200" version="1.1" xmlns="http://www.w3.org/2000/svg" xmlns:xlink="http://www.w3.org/1999/xlink" xml:space="preserve" xmlns:serif="http://www.serif.com/" style="fill-rule:evenodd;clip-rule:evenodd;stroke-linejoin:round;stroke-miterlimit:1.41421;"><path d="M536.721,169l-241,-169l-13,0l187.53,152.462l66.47,16.538Z" style="fill:url(#_Linear1);"/><path d="M379.721,-19l-110,161l68,-3l123,-163l-81,5Z" style="fill:url(#_Linear2);"/><path d="M299.721,171l237,-3l-76,-18.91l-123,-11.09l-68,3l30,30Z" style="fill:#1481e6;"/><rect x="432" y="63" width="319" height="53" style="fill:#074b8b;fill-opacity:0.8;"/><rect x="432" y="123" width="319" height="35" style="fill:#074b8b;fill-opacity:0.7;"/><text x="463.218px" y="102.149px" style="font-family:'FiraCode-Regular', 'Fira Code', monospace;font-size:36px;fill:#fff;">W<tspan x="486.618px 510.018px 533.418px 556.818px 580.218px 603.618px 627.018px 650.418px 673.818px 697.218px " y="102.149px 102.149px 102.149px 102.149px 102.149px 102.149px 102.149px 102.149px 102.149px 102.149px ">ebDev/Home</tspan></text><text x="469.891px" y="146.274px" style="font-family:'FiraCode-Regular', 'Fira Code', monospace;font-size:18px;fill:#fff;">A<tspan x="481.591px 493.291px 504.991px 516.691px 528.391px 540.091px 551.791px 563.491px 575.191px 586.891px 598.591px 610.291px 621.991px 633.691px 645.391px 657.091px 668.791px 680.492px 692.192px 703.892px " y="146.274px 146.274px 146.274px 146.274px 146.274px 146.274px 146.274px 146.274px 146.274px 146.274px 146.274px 146.274px 146.274px 146.274px 146.274px 146.274px 146.274px 146.274px 146.274px 146.274px "> Web Developers Home</tspan></text><defs><linearGradient id="_Linear1" x1="0" y1="0" x2="1" y2="0" gradientUnits="userSpaceOnUse" gradientTransform="matrix(183.392,150,-150,183.392,295.721,0)"><stop offset="0" style="stop-color:#1381e6;stop-opacity:0"/><stop offset="1" style="stop-color:#1481e6;stop-opacity:1"/></linearGradient><linearGradient id="_Linear2" x1="0" y1="0" x2="1" y2="0" gradientUnits="userSpaceOnUse" gradientTransform="matrix(-42,158,-158,-42,379.721,-19)"><stop offset="0" style="stop-color:#03305b;stop-opacity:1"/><stop offset="1" style="stop-color:#1481e6;stop-opacity:1"/></linearGradient></defs></svg>